<svg width="220" height="219" viewBox="0 0 220 219" fill="none" xmlns="http://www.w3.org/2000/svg">
<path fill-rule="evenodd" clip-rule="evenodd" d="M192.5 86.429V74.643H220V86.429H192.5ZM172.799 38.867L192.245 19.421L200.579 27.755L181.133 47.201L172.799 38.867ZM164.262 113.436C161.495 110.436 158.356 107.797 154.898 105.595C163.306 100.408 168.929 91.141 168.929 80.536C168.929 64.263 155.737 51.072 139.464 51.072C128.85 51.072 119.575 56.703 114.388 65.123C110.78 63.455 107.002 62.115 103.081 61.107C110.029 48.124 123.71 39.286 139.464 39.286C162.246 39.286 180.715 57.754 180.715 80.536C180.715 93.998 174.244 105.917 164.262 113.436ZM133.571 0H145.357V27.5H133.571V0ZM78.35 27.755L86.684 19.421L106.129 38.867L97.796 47.201L78.35 27.755ZM139.485 111.417C154.218 115.683 165 129.249 165 145.357C165 160.746 155.152 173.801 141.429 178.66V165.66C148.445 161.576 153.214 154.06 153.214 145.357C153.214 132.34 142.661 121.786 129.643 121.786C129.575 121.786 129.513 121.805 129.446 121.806C127.467 99.774 108.976 82.5 86.429 82.5C66.457 82.5 49.697 96.068 44.744 114.474C42.979 114.119 41.155 113.929 39.286 113.929C24.098 113.929 11.786 126.241 11.786 141.429C11.786 150.77 16.453 159.009 23.571 163.979V177.424C9.702 171.359 0 157.535 0 141.429C0 120.594 16.231 103.595 36.731 102.272C45.538 83.638 64.45 70.715 86.429 70.715C111.85 70.715 133.183 87.986 139.485 111.417ZM44.2 157.8L51.4 150.6L69.4 168.6H76.6V161.4L58.6 143.4L65.8 136.2L76.6 150.6V129H87.4V150.6L98.2 136.2L105.4 143.4L87.4 161.4V168.6H94.6L112.6 150.6L119.8 157.8L105.4 168.6H127V179.4H105.4L119.8 190.2L112.6 197.4L94.6 179.4H87.4V186.6L105.4 204.6L98.2 211.8L87.4 197.4V219H76.6V197.4L65.8 211.8L58.6 204.6L76.6 186.6V179.4H69.4L51.4 197.4L44.2 190.2L58.6 179.4H37V168.6H58.6L44.2 157.8ZM200.579 133.316L192.245 141.65L172.799 122.205L181.133 113.871L200.579 133.316Z" fill="white"/>
</svg>
