<svg width="213" height="175" viewBox="0 0 213 175" fill="white" xmlns="http://www.w3.org/2000/svg">
<path fill-rule="evenodd" clip-rule="evenodd" d="M172.038 142.442V130.233C187.874 130.233 200.712 117.479 200.712 101.744C200.712 86.011 187.874 73.256 172.038 73.256C170.494 73.256 168.99 73.412 167.512 73.645C167.766 71.511 167.942 69.354 167.942 67.151C167.942 36.808 143.185 12.21 112.644 12.21C82.104 12.21 57.346 36.808 57.346 67.151C57.346 67.273 57.364 67.391 57.365 67.512C53.562 65.979 49.414 65.117 45.058 65.117C26.96 65.117 12.289 79.694 12.289 97.675C12.289 115.656 26.96 130.233 45.058 130.233V142.442C20.173 142.442 0 122.399 0 97.675C0 72.951 20.173 52.907 45.058 52.907C45.577 52.907 46.08 52.967 46.595 52.984C53.145 22.707 80.213 0.000976562 112.644 0.000976562C148.16 0.000976562 177.219 27.235 179.96 61.823C198.789 65.491 213 81.962 213 101.744C213 124.221 194.661 142.442 172.038 142.442ZM49.154 130.233H45.058C46.453 130.233 47.805 130.075 49.154 129.907V130.233ZM65.539 105.814L73.731 97.675L94.212 118.024H102.404V109.884L81.923 89.535L90.115 81.395L102.404 97.675V73.256H114.692V97.675L126.981 81.395L135.173 89.535L114.692 109.884V118.024H122.885L143.365 97.675L151.558 105.814L135.173 118.024H159.75V130.233H135.173L151.558 142.442L143.365 150.582L122.885 130.233H114.692V138.373L135.173 158.721L126.981 166.861L114.692 150.582V175H102.404V150.582L90.115 166.861L81.923 158.721L102.404 138.373V130.233H94.212L73.731 150.582L65.539 142.442L81.923 130.233H57.346V118.024H81.923L65.539 105.814Z" fill="" />
</svg>
