<svg width="207" height="207" viewBox="0 0 207 207" xmlns="http://www.w3.org/2000/svg" style="fill: white">
<path fill-rule="evenodd" clip-rule="evenodd" d="M176.171 110.106V96.893H207.001V110.106H176.171ZM150.215 47.443L172.015 25.642L181.358 34.985L159.558 56.785L150.215 47.443ZM103.5 162.958C70.662 162.958 44.042 136.338 44.042 103.5C44.042 70.663 70.662 44.042 103.5 44.042C136.338 44.042 162.958 70.663 162.958 103.5C162.958 136.338 136.338 162.958 103.5 162.958ZM103.5 57.255C77.96 57.255 57.255 77.96 57.255 103.5C57.255 129.04 77.96 149.745 103.5 149.745C129.041 149.745 149.745 129.04 149.745 103.5C149.745 77.96 129.041 57.255 103.5 57.255ZM96.894 -0.000976562H110.106V30.829H96.894V-0.000976562ZM25.643 34.985L34.985 25.642L56.785 47.443L47.443 56.785L25.643 34.985ZM30.829 110.106H-0.000976562V96.893H30.829V110.106ZM56.785 159.558L34.985 181.358L25.643 172.015L47.443 150.215L56.785 159.558ZM110.106 207.001H96.894V176.171H110.106V207.001ZM181.358 172.015L172.015 181.358L150.215 159.558L159.558 150.215L181.358 172.015Z" />
</svg>
