<svg width="220" height="148" viewBox="0 0 220 148" fill="none" xmlns="http://www.w3.org/2000/svg">
<path fill-rule="evenodd" clip-rule="evenodd" d="M177.692 148H50.769V147.758C49.371 147.885 47.97 148 46.539 148C20.836 148 0 127.175 0 101.486C0 75.797 20.836 54.972 46.539 54.972C47.075 54.972 47.595 55.034 48.126 55.052C54.891 23.592 82.849 0 116.346 0C153.03 0 183.043 28.298 185.874 64.235C205.322 68.046 220 85.16 220 105.714C220 129.069 201.058 148 177.692 148ZM177.692 76.114C176.074 76.114 174.498 76.279 172.95 76.529C173.216 74.303 173.462 72.07 173.462 69.771C173.462 38.244 147.89 12.686 116.346 12.686C84.802 12.686 59.231 38.244 59.231 69.771C59.231 69.898 59.249 70.02 59.25 70.147C55.323 68.553 51.038 67.657 46.539 67.657C27.846 67.657 12.692 82.803 12.692 101.486C12.692 120.169 27.846 135.315 46.539 135.315C47.979 135.315 49.377 135.15 50.769 134.975V135.315H177.692C194.048 135.315 207.307 122.062 207.307 105.714C207.307 89.367 194.048 76.114 177.692 76.114Z" fill="white"/>
</svg>
