<svg width="206" height="186" viewBox="0 0 206 186" fill="none" xmlns="http://www.w3.org/2000/svg">
<path fill-rule="evenodd" clip-rule="evenodd" d="M186.192 133.174V118.284C191.081 113.289 194.115 106.474 194.115 98.936C194.115 83.637 181.7 71.234 166.385 71.234C164.882 71.234 163.436 71.446 161.998 71.676C162.249 69.581 162.423 67.462 162.423 65.298C162.423 35.792 138.479 11.873 108.942 11.873C79.406 11.873 55.462 35.792 55.462 65.298C55.462 65.417 55.479 65.531 55.479 65.649C51.802 64.158 47.79 63.32 43.577 63.32C26.074 63.32 11.885 77.494 11.885 94.979C11.885 102.714 14.669 109.794 19.281 115.293L10.877 123.688C4.127 116.021 0 105.992 0 94.979C0 70.937 19.51 51.447 43.577 51.447C44.079 51.447 44.566 51.506 45.064 51.522C51.398 22.08 77.577 0.000976562 108.942 0.000976562C143.291 0.000976562 171.395 26.484 174.046 60.117C192.256 63.684 206 79.7 206 98.936C206 113.576 198.022 126.328 186.192 133.174ZM31.692 118.724L39.616 110.809L59.423 130.596H67.346V122.681L47.539 102.894L55.462 94.979L67.346 110.809V87.064H79.231V110.809L91.115 94.979L99.039 102.894L79.231 122.681V130.596H87.154L106.962 110.809L114.885 118.724L99.039 130.596H122.808V142.469H99.039L114.885 154.341L106.962 162.256L87.154 142.469H79.231V150.384L99.039 170.171L91.115 178.086L79.231 162.256V186H67.346V162.256L55.462 178.086L47.539 170.171L67.346 150.384V142.469H59.423L39.616 162.256L31.692 154.341L47.539 142.469H23.769V130.596H47.539L31.692 118.724ZM146.577 126.639H134.692V102.894H146.577V126.639ZM146.577 162.256H134.692V138.511H146.577V162.256ZM174.308 138.511H162.423V114.766H174.308V138.511ZM174.308 174.128H162.423V150.384H174.308V174.128Z" fill="white"/>
</svg>
