<svg width="223" height="184" viewBox="0 0 223 184" fill="none" xmlns="http://www.w3.org/2000/svg">
<path fill-rule="evenodd" clip-rule="evenodd" d="M180.115 149.768C179.167 149.768 178.242 149.672 177.309 149.611L181.57 136.858C197.468 136.096 210.135 123.031 210.135 106.977C210.135 90.434 196.695 77.024 180.115 77.024C178.514 77.024 176.954 77.185 175.42 77.426C175.685 75.189 175.827 72.914 175.827 70.605C175.827 38.701 149.907 12.838 117.933 12.838C85.959 12.838 60.039 38.701 60.039 70.605C60.039 70.733 60.057 70.857 60.058 70.985C56.077 69.373 51.734 68.466 47.173 68.466C28.226 68.466 12.866 83.793 12.866 102.698C12.866 121.604 28.226 136.931 47.173 136.931C47.673 136.931 48.147 136.834 48.642 136.814L44.362 149.626C19.625 148.168 0 127.747 0 102.698C0 76.702 21.12 55.629 47.173 55.629C47.716 55.629 48.244 55.692 48.782 55.71C55.64 23.875 83.978 0 117.933 0C155.117 0 185.539 28.636 188.409 65.003C208.122 68.86 223 86.178 223 106.977C223 130.61 203.8 149.768 180.115 149.768ZM85.77 106.977L64.327 171.163H51.462L72.904 106.977H85.77ZM111.5 119.815L90.058 184H77.192L98.635 119.815H111.5ZM145.808 106.977L124.366 171.163H111.5L132.943 106.977H145.808ZM171.539 119.815L150.096 184H137.231L158.674 119.815H171.539Z" fill="white"/>
</svg>
