<svg width="223" height="202" viewBox="0 0 223 202" fill="none" xmlns="http://www.w3.org/2000/svg">
<path fill-rule="evenodd" clip-rule="evenodd" d="M189.035 149.481L194.826 133.522C203.923 128.354 210.135 118.677 210.135 107.448C210.135 90.832 196.694 77.363 180.115 77.363C178.467 77.363 176.88 77.592 175.303 77.848C175.578 75.566 175.827 73.273 175.827 70.915C175.827 38.871 149.907 12.894 117.933 12.894C85.959 12.894 60.039 38.871 60.039 70.915C60.039 71.044 60.057 71.168 60.058 71.297C56.077 69.678 51.733 68.767 47.173 68.767C28.226 68.767 12.865 84.161 12.865 103.15C12.865 109.331 14.515 115.117 17.365 120.13L8.01 129.505C2.954 121.975 0 112.909 0 103.15C0 77.04 21.12 55.873 47.173 55.873C47.716 55.873 48.244 55.937 48.783 55.955C55.64 23.98 83.979 0.000976562 117.933 0.000976562C155.117 0.000976562 185.539 28.762 188.409 65.289C208.122 69.162 223 86.557 223 107.448C223 128.117 208.436 145.366 189.035 149.481ZM90.058 116.043H120.077L51.462 202.001V137.533H21.442L90.058 55.873V116.043ZM77.192 90.256L47.173 124.639H64.327V167.618L94.346 128.937H77.192V90.256ZM111.5 159.022L102.923 184.809H90.058L98.634 159.022H111.5ZM158.673 107.448L137.231 171.916H124.365L145.808 107.448H158.673ZM184.404 120.341L162.962 184.809H150.096L171.539 120.341H184.404Z" fill="white"/>
</svg>
