<svg width="201" height="184" viewBox="0 0 201 184" fill="none" xmlns="http://www.w3.org/2000/svg">
<path fill-rule="evenodd" clip-rule="evenodd" d="M201 99.741H168.807L185.674 120.384L177.944 133.285L146.537 99.741H113.89L130.169 127.974L174.963 138.456L167.669 151.61L141.308 147.292L157.445 175.281L144.055 183.021L127.966 155.117L118.573 179.993L103.549 179.74L116.834 135.812L100.5 107.482L84.255 135.657L97.587 179.74L82.563 179.993L73.117 154.975L56.945 183.021L43.555 175.281L59.678 147.317L33.467 151.61L26.173 138.455L70.81 128.011L87.11 99.741H54.599L23.193 133.285L15.462 120.384L32.329 99.741H0V84.259H32.329L15.462 63.617L23.193 50.715L54.599 84.259H87.11L70.809 55.989L26.173 45.545L33.467 32.39L59.678 36.684L43.555 8.72098L56.945 0.97998L73.117 29.027L82.563 4.00698L97.587 4.25998L84.255 48.345L100.5 76.519L116.834 48.19L103.549 4.25998L118.573 4.00698L127.966 28.884L144.055 0.97998L157.445 8.72098L141.308 36.709L167.669 32.39L174.963 45.545L130.169 56.026L113.89 84.259H146.538L177.944 50.715L185.674 63.617L168.808 84.259H201V99.741Z" fill="white"/>
</svg>
