<svg width="220" height="181" viewBox="0 0 220 181" fill="white" xmlns="http://www.w3.org/2000/svg">
<path fill-rule="evenodd" clip-rule="evenodd" d="M192.5 86.566V74.761H220V86.566H192.5ZM172.799 38.928L192.245 19.452L200.578 27.799L181.133 47.275L172.799 38.928ZM164.262 113.615C161.495 110.61 158.356 107.967 154.898 105.762C163.306 100.567 168.929 91.285 168.929 80.663C168.929 64.365 155.737 51.152 139.464 51.152C128.85 51.152 119.574 56.793 114.388 65.226C110.78 63.555 107.002 62.213 103.081 61.203C110.029 48.2 123.71 39.348 139.464 39.348C162.246 39.348 180.714 57.845 180.714 80.663C180.714 94.146 174.244 106.085 164.262 113.615ZM133.571 0H145.357V27.544H133.571V0ZM78.35 27.799L86.684 19.452L106.129 38.928L97.795 47.275L78.35 27.799ZM139.485 111.593C154.218 115.866 165 129.454 165 145.587C165 165.145 149.17 181 129.643 181H39.286C17.589 181 0 163.383 0 141.652C0 120.785 16.231 103.758 36.73 102.434C45.538 83.77 64.45 70.826 86.429 70.826C111.85 70.826 133.183 88.125 139.485 111.593ZM44.743 114.655C42.979 114.299 41.155 114.109 39.286 114.109C24.098 114.109 11.786 126.44 11.786 141.652C11.786 156.864 24.098 169.196 39.286 169.196H129.643C142.661 169.196 153.214 158.626 153.214 145.587C153.214 132.548 142.661 121.978 129.643 121.978C129.575 121.978 129.513 121.997 129.446 121.998C127.467 99.931 108.975 82.631 86.429 82.631C66.457 82.631 49.697 96.219 44.743 114.655ZM200.578 133.527L192.245 141.874L172.799 122.398L181.133 114.051L200.578 133.527Z" fill=""/>
</svg>
